<svg xmlns="http://www.w3.org/2000/svg" xmlns:xlink="http://www.w3.org/1999/xlink" viewBox="0 0 201.63 263.67"><defs><style>.cls-1{fill:url(#未命名的渐变_56);}.cls-2{fill:url(#未命名的渐变_56-2);}.cls-3{fill:url(#未命名的渐变_56-3);}.cls-4{fill:#fff;}</style><linearGradient id="未命名的渐变_56" x1="109.52" y1="72.36" x2="148.06" y2="-0.12" gradientUnits="userSpaceOnUse"><stop offset="0" stop-color="#06f"/><stop offset="0.2" stop-color="#1677ff"/><stop offset="1" stop-color="#04a6ff"/></linearGradient><linearGradient id="未命名的渐变_56-2" x1="4.61" y1="193.52" x2="194.07" y2="124.56" xlink:href="#未命名的渐变_56"/><linearGradient id="未命名的渐变_56-3" x1="54.2" y1="95.16" x2="33.15" y2="16.59" xlink:href="#未命名的渐变_56"/></defs><g id="图层_2" data-name="图层 2"><g id="内容"><path class="cls-1" d="M116.08,75.62a5.38,5.38,0,0,1-4-3.8,12.38,12.38,0,0,1-.09-6c1.87-10.34,3.54-20.72,5.95-31,2-8.31,4.72-16.55,9.77-23.53,3.63-5,8.89-9.33,15-10.85C153.13-2.19,157.46,8,153.84,16.6c-3.05,7.27-10.43,11-15.85,16.2-9.92,9.56-13,25.71-15.88,38.6A5.13,5.13,0,0,1,116.08,75.62Z"/><path class="cls-2" d="M96.89,62.43a22.18,22.18,0,0,1-10.52-2.56c-3.16-1.81-7.32-5-11.24-3.66-4.29,1.5-5.95,7.46-9.28,10.38-4.69,4.1-10.39,6.34-15.67,9.48a109,109,0,0,0-13.1,9.06A100.57,100.57,0,0,0,109.5,263.3c51.51-4.38,91.77-47.81,92.13-99.41A100.72,100.72,0,0,0,105.2,62.54C102.42,62.43,99.63,62.53,96.89,62.43Z"/><path class="cls-3" d="M27.58,24.8a15.21,15.21,0,0,1,4.55-7A9.9,9.9,0,0,1,46,19.1c8.24,9.84,2,24.93,1.67,36.26-.27,9.55,2.94,19.42,6.79,27.86.74,1.63,2,3.3,2.22,5.17a6.48,6.48,0,0,1-3.39,6.91c-4.11,2-6.74-2.28-8.43-5.36A236.82,236.82,0,0,1,34.42,67.77a105.28,105.28,0,0,1-7.35-23.88c-.24-1.48-.44-3-.59-4.47s-.23-2.71-.28-4.07A30.38,30.38,0,0,1,27.58,24.8Z"/><path class="cls-4" d="M194.3,150.12c-3.25-37.62-33.3-68.08-67-68s-58.19,30.41-55,67.83,33,67.9,66.68,68.06S197.55,187.76,194.3,150.12Zm-17.59,42.66a46.32,46.32,0,0,1-33.37,15.66c-14.44.44-28.64-5.42-40-16.5a68.49,68.49,0,0,1-20.23-42.26c-1.74-17.12,3.16-33.55,13.51-45.1A46.27,46.27,0,0,1,130,89c.5,0,1,0,1.51,0,14.19,0,28.15,6.18,39.24,17.36a68.88,68.88,0,0,1,19.52,41.92C191.9,165.09,186.92,181.35,176.71,192.78Z"/></g></g></svg>